<svg width="25" height="24" fill="none" xmlns="http://www.w3.org/2000/svg"><path fill-rule="evenodd" clip-rule="evenodd" d="M17.5 4v-.12c.85.13 1.57.4 2.15.97.6.6.86 1.36.98 2.26.12.87.12 1.97.12 3.34v5.1c0 1.37 0 2.48-.12 3.34-.12.9-.38 1.66-.98 2.26-.6.6-1.36.86-2.26.98-.87.12-1.97.12-3.34.12h-3.1c-1.37 0-2.47 0-3.34-.12a3.72 3.72 0 0 1-2.26-.98c-.6-.6-.86-1.36-.98-2.26-.12-.86-.12-1.97-.12-3.33v-5.11c0-1.37 0-2.47.12-3.34.12-.9.38-1.66.98-2.26.58-.58 1.3-.84 2.15-.97v.19c0 .4 0 .85.05 1.23.06.44.21 1 .68 1.47.47.47 1.03.62 1.47.68.38.05.82.05 1.23.05h3.14c.4 0 .85 0 1.23-.05.44-.06 1-.21 1.47-.68.47-.47.62-1.03.68-1.47.05-.38.05-.82.05-1.23V4Z" fill="#000"/><path d="M10.5 2.23c-.83 0-1.5.67-1.5 1.5 0 .95 0 1.68.3 1.98.29.29.76.29 1.7.29h3c.94 0 1.41 0 1.7-.3.3-.29.3-1.02.3-1.97 0-.83-.67-1.5-1.5-1.5h-4Z" fill="#000"/></svg>